<svg width="400" height="400" viewBox="0 0 400 400" fill="none" xmlns="http://www.w3.org/2000/svg">
<g id="headscarf">
<g id="master/headscarf">
<path id="Path" d="M199.256 119.405C193.255 141.537 148.55 141.881 140.006 156.117C135.062 164.356 136.088 183.581 136.088 192.825C136.088 308.193 274.667 296.977 274.667 171.778" stroke="black" stroke-opacity="0.9" stroke-width="16" stroke-linecap="round" stroke-linejoin="round"/>
<path id="Path_2" d="M204 117C224.888 128.07 255.483 132.993 266 153" stroke="black" stroke-opacity="0.9" stroke-width="16" stroke-linecap="round" stroke-linejoin="round"/>
<path id="Path_3" d="M153.334 301.428C139.692 316.122 93.3659 252.1 129.504 255.714" stroke="black" stroke-opacity="0.9" stroke-width="16" stroke-linecap="round" stroke-linejoin="round"/>
<path id="Path_4" d="M138.732 262.605C31.4281 99.988 234.602 -16.4908 297.893 117.498C321.492 179.945 277.038 333.042 158.51 280.037" stroke="black" stroke-opacity="0.9" stroke-width="16" stroke-linecap="round" stroke-linejoin="round"/>
<path id="Path_5" d="M278.999 264C295.499 276 267.078 293.556 257.999 299C222.571 320.229 191.963 351.51 153.333 296.39" stroke="black" stroke-opacity="0.9" stroke-width="16" stroke-linecap="round" stroke-linejoin="round"/>
<path id="Path_6" d="M113.333 288.938C94.9676 298.73 74.6505 326.834 76.0704 341" stroke="black" stroke-opacity="0.9" stroke-width="16" stroke-linecap="round" stroke-linejoin="round"/>
<path id="Path_7" d="M294.667 283.599C311.403 295.345 317.669 317.083 324 334.325" stroke="black" stroke-opacity="0.9" stroke-width="16" stroke-linecap="round" stroke-linejoin="round"/>
<path id="Path_8" d="M187 199C187.477 194.922 188.344 190.993 187.855 187" stroke="black" stroke-opacity="0.9" stroke-width="16" stroke-linecap="round" stroke-linejoin="round"/>
<path id="Path_9" d="M224 198C225.463 193.939 225.02 189.962 224.545 186" stroke="black" stroke-opacity="0.9" stroke-width="16" stroke-linecap="round" stroke-linejoin="round"/>
<path id="Path_10" d="M213 240.388C203.043 246.844 195.581 243.774 189 238" stroke="black" stroke-opacity="0.9" stroke-width="16" stroke-linecap="round" stroke-linejoin="round"/>
</g>
</g>
</svg>
