<svg width="400" height="400" viewBox="0 0 400 400" fill="none" xmlns="http://www.w3.org/2000/svg">
<g id="kyle">
<g id="Component 135">
<path id="Path" d="M155.852 137.421C155.852 159.428 134.877 205.625 125.343 201.179C106.474 192.38 120.585 101.645 129.382 90.2752C139.97 76.5872 180.357 71.6298 207.276 71.6298C233.989 71.6298 271.062 67.6194 296.27 79.8382C317.369 90.0634 313.767 130.43 313.767 148.988C313.767 157.624 310.955 197.048 304.709 203.104C295.414 212.114 282.579 188.962 274.051 134.636C268.107 132.717 194.772 132.909 180.525 134.636" stroke="var(--avatar-stroke, black)" stroke-opacity="0.9" stroke-width="16" stroke-linecap="round" stroke-linejoin="round"/>
<path id="Path_2" d="M145.759 215.735C165.001 300.5 272.878 289.722 287.501 205.5" stroke="var(--avatar-stroke, black)" stroke-opacity="0.9" stroke-width="16" stroke-linecap="round" stroke-linejoin="round"/>
<path id="Path_3" d="M228.399 233.283C217.797 236.963 211.927 232.284 202.5 237.5" stroke="var(--avatar-stroke, black)" stroke-opacity="0.9" stroke-width="16" stroke-linecap="round" stroke-linejoin="round"/>
<path id="Path_4" d="M197 199C197 195.665 197 192.335 197 189" stroke="var(--avatar-stroke, black)" stroke-opacity="0.9" stroke-width="16" stroke-linecap="round" stroke-linejoin="round"/>
<path id="Path_5" d="M230.856 198C231.36 194.133 230.414 190.727 230 187" stroke="var(--avatar-stroke, black)" stroke-opacity="0.9" stroke-width="16" stroke-linecap="round" stroke-linejoin="round"/>
<path id="Path 21" d="M79 334.876C96 288 132.43 262 166.025 262" stroke="var(--avatar-stroke, black)" stroke-opacity="0.9" stroke-width="16" stroke-linecap="round" stroke-linejoin="round"/>
<path id="Path 22" d="M269.625 262.124C306.596 270.957 328.054 295.249 333.999 335" stroke="var(--avatar-stroke, black)" stroke-opacity="0.9" stroke-width="16" stroke-linecap="round" stroke-linejoin="round"/>
</g>
</g>
</svg>
