<svg width="400" height="400" viewBox="0 0 400 400" fill="none" xmlns="http://www.w3.org/2000/svg">
<g id="youngboy">
<g id="youngboy_2">
<path id="Path" d="M106.768 140.662C163.254 -2.90955 355.948 97.9398 290.043 216.125C242.945 300.582 120.63 282.23 109.244 182.805" stroke="black" stroke-opacity="0.9" stroke-width="16" stroke-linecap="round" stroke-linejoin="round"/>
<path id="Path_2" d="M101.76 158.327C93.9 163.449 93.9 172.515 104.705 182.61" stroke="black" stroke-opacity="0.9" stroke-width="16" stroke-linecap="round" stroke-linejoin="round"/>
<path id="Path_3" d="M308.92 162.42C317.261 174.257 308.287 183.486 297.575 182.544" stroke="black" stroke-opacity="0.9" stroke-width="16" stroke-linecap="round" stroke-linejoin="round"/>
<path id="Path_4" d="M219.557 188.006C221.669 182.902 220.402 176.923 220.815 171.537" stroke="black" stroke-opacity="0.9" stroke-width="16" stroke-linecap="round" stroke-linejoin="round"/>
<path id="Path_5" d="M185.814 186.976C186.532 180.917 186.887 176.297 185.814 170.508" stroke="black" stroke-opacity="0.9" stroke-width="16" stroke-linecap="round" stroke-linejoin="round"/>
<path id="Path_6" d="M202.417 79.8564C198.143 97.6747 218.276 118.954 227.685 118.954" stroke="black" stroke-opacity="0.9" stroke-width="16" stroke-linecap="round" stroke-linejoin="round"/>
<path id="Path_7" d="M172.259 78.0186C170.851 87.1948 182.575 115.882 190.311 110.483" stroke="black" stroke-opacity="0.9" stroke-width="16" stroke-linecap="round" stroke-linejoin="round"/>
<path id="Path_8" d="M150.086 95.2959C150.904 104.575 152.805 114.422 161.582 115.882" stroke="black" stroke-opacity="0.9" stroke-width="16" stroke-linecap="round" stroke-linejoin="round"/>
<path id="Path_9" d="M216.674 229.148C202.86 236.591 193.159 240.19 188.217 225.178" stroke="black" stroke-opacity="0.9" stroke-width="16" stroke-linecap="round" stroke-linejoin="round"/>
<path id="Path_10" d="M71 344C71.0001 325 95 270 123 265M280 265C304.894 265 329 311 329 344" stroke="black" stroke-opacity="0.9" stroke-width="16" stroke-linecap="round" stroke-linejoin="round"/>
</g>
</g>
</svg>
